<svg xmlns="http://www.w3.org/2000/svg" width="19" height="14" viewBox="0 0 19 14"><g><g><path fill="#929292" d="M18.997 6.996c0 1.568-.001 3.228-.332 4.749-.233 1.068-1.06 1.856-2.054 1.974-2.355.278-4.739.28-7.113.278-2.374.001-4.758 0-7.114-.278-.995-.118-1.82-.906-2.053-1.974-.33-1.521-.33-3.181-.33-4.749C0 5.43.003 3.77.334 2.25.568 1.18 1.393.392 2.387.274c2.356-.277 4.741-.279 7.115-.277 2.373-.002 4.758 0 7.113.277.995.118 1.821.906 2.054 1.975.33 1.52.328 3.181.328 4.747zm-5.91-.193l-6.04-3.331v6.642l6.04-3.31z"/></g></g></svg>