<svg xmlns="http://www.w3.org/2000/svg" width="18" height="16" viewBox="0 0 18 16"><g><g><path fill="#929292" d="M17.469 2.26a7.219 7.219 0 0 1-.266.076c-.543.144-.592-.045-.2-.464.176-.188.332-.392.466-.612.303-.494.04-.71-.474-.479-.184.082-.37.157-.56.224-.53.187-1.282-.095-1.755-.41C14.084.198 13.406 0 12.646 0c-1.064 0-1.97.393-2.72 1.18C9.175 1.97 8.8 2.92 8.8 4.038c0 .153.008.308.025.465.027.256-.384.441-.938.36a10.29 10.29 0 0 1-3.416-1.144A11 11 0 0 1 1.64 1.531c-.392-.42-.92-.384-1.067.183-.088.34-.131.693-.131 1.06a4.135 4.135 0 0 0 1.006 2.724c.348.402.295.635-.19.492-.485-.142-.84-.354-.84-.34v.025c0 .975.292 1.831.875 2.569.36.454.777.805 1.253 1.052.501.26.735.406.454.444a3.87 3.87 0 0 1-.875.018c-.2-.018-.236.42.068.914.242.391.551.736.928 1.034.383.303.796.52 1.239.653.538.161.646.454.166.757-1.187.747-2.501 1.121-3.942 1.121a9.56 9.56 0 0 1-.465-.011c-.256-.013-.084.224.412.497A10.273 10.273 0 0 0 5.56 16c1.366 0 2.648-.227 3.847-.681 1.198-.455 2.223-1.063 3.072-1.825.85-.763 1.582-1.64 2.197-2.632a12.019 12.019 0 0 0 1.826-6.612c-.003-.146.362-.538.77-.94a8.25 8.25 0 0 0 .528-.57c.37-.442.206-.644-.331-.48z"/></g></g></svg>